<svg viewBox="0 0 1000 1000" width="1000" height="1000" xmlns="http://www.w3.org/2000/svg"><g fill="#ff7348"><path d="M78.51 135.78l-.1-1.46a8.92 8.92 0 00-2.72-5.48 6.08 6.08 0 00-2.69-1.48 6.15 6.15 0 00-3.12-.48 8.1 8.1 0 00-5.49 2.72 8.28 8.28 0 00-2 5.8l.1 1.47a8.85 8.85 0 002.72 5.48 6 6 0 002.79 1.48 6 6 0 003.12.47 8 8 0 005.48-2.72 8.32 8.32 0 002-5.8zM107.6 141.83c10.27-.7 9.21-16.66-1.08-16s-9.21 16.66 1.08 16zM139.75 139.64c10.27-.69 9.2-16.66-1.08-16s-9.21 16.66 1.08 16z"/></g><path d="M37.34 129.19a1872.45 1872.45 0 00-15.25 200.74 1820.6 1820.6 0 006.82 200.77c2.65 29.54 4.82 59.74 11.55 88.7 5.87 25.27 16.65 50 36.69 67.26 39.49 34 96.86 32 145.76 31.61l203.68-1.76 203.68-1.76L834 713c29.23-.25 60.78 1.33 87.53-12.5 22.19-11.47 37.54-32.71 46.4-55.6 11-28.34 11.37-59.48 9.74-89.42-1.63-30.15-4.08-60.26-5.73-90.42-3.47-63.09-6-126.23-9.49-189.33-1.74-31.29-3.69-62.57-6.14-93.82-1-12.68-1.84-25.17-6-37.27a97.4 97.4 0 00-16-28.89 96 96 0 00-56.54-34.1c-14.41-2.73-29.52-3.12-44.13-4.3Q785 73.4 736.4 70.4q-57-3.56-114-6.06-61.26-2.67-122.56-4c-41-.85-81.95-1.19-122.92-.77-38.36.4-76.72 1.44-115 3.66-33.06 1.91-66.11 4.65-98.91 9.26-25.2 3.54-50.58 8-74.79 16C73 93.5 55.7 100.14 45 112.72a30.73 30.73 0 00-7.51 15.59c-.57 4.19 5.84 6 6.42 1.77 1.69-12.36 13-20.43 24-26.13 18.59-9.68 39.66-14.69 60.07-18.83 63.56-12.89 129.3-15.9 194-17.82 79.3-2.35 158.7-1.29 238 1.3q111.29 3.65 222.4 11.51c28.28 2 56.55 4.13 84.78 6.74a90.26 90.26 0 0159.44 30 88.83 88.83 0 0117.27 29.51c4.31 12.4 5 25.22 6 38.21 4.78 61.72 7.71 123.56 10.66 185.39 2.86 60 6.43 119.84 10.15 179.76 1.85 29.77 2.31 60.58-7.61 89.11-8.38 24.1-24.39 46.5-48 57.41-27.82 12.83-61.19 9.89-91 10.14l-99.85.87-399.37 3.45-97.84.85c-26.68.23-53.62.95-80.08-3.1-24.37-3.68-48.83-11.56-67.25-28.45-20-18.32-29.34-44.25-34.49-70.24-5.91-29.85-8.13-60.63-10.64-90.92q-4.06-49.16-5.48-98.48a1824.81 1824.81 0 015-196.63q3.77-47.4 9.91-94.56c.57-4.17-6.1-4.17-6.64.02z" fill="#112870"/><path d="M55.67 180.11Q226.75 172 398 169.56q170.81-2.42 341.62.88 96.09 1.84 192.15 5.51c4.29.16 4.28-6.5 0-6.66Q760.61 162.8 589.25 162q-170.79-.78-341.56 4.13-96 2.77-192 7.34c-4.26.2-4.29 6.86 0 6.65z" fill="#a89fff"/><path d="M822.9 140.8h37.93c4.29 0 4.29-6.66 0-6.66H822.9c-4.29 0-4.29 6.66 0 6.66z" fill="#112870"/><g fill="#fc92c3"><path d="M672.23 858.66c-11.69-110.46-27.6-155.07-75.53-206.33-42.32-44.59-69.62-69.19-97.36-45.16s23 75.17 23 75.17-83.34 1.52-132.48 88c-20.2 47.32 40 167 40 167s244.94-54.4 242.37-78.68z"/><path d="M455.35 675.24s-29.32-11.79-45.46 22.3 28.46 58.39 49 37.23 9.01-50.02-3.54-59.53z"/><path d="M525.42 684.37s-22.78-64.4-56.94-45.8-21.92 68.57 8.74 73 48.67-15.33 48.2-27.2zM413.21 719.2s-20.32-9.36-35.53 15.33 6.93 57.07 27.23 54 41.21-32.78 32.32-48.71a46.16 46.16 0 00-24.02-20.62z"/></g><g fill="#112870"><path d="M444 676c4.35 23.54 25.35 43.78 50.27 35.59 4.05-1.33 2.31-7.76-1.77-6.42-21.63 7.11-38.38-10.92-42.08-30.94-.78-4.2-7.2-2.42-6.42 1.77zM404.19 717.62c3.79 15.59 19.72 30.26 36.23 30 15.27-.26 28-11.93 31.74-26.32 1.09-4.15-5.33-5.92-6.41-1.77-3 11.51-13 21.22-25.33 21.43-13.61.23-26.71-12.33-29.81-25.09-1-4.16-7.43-2.4-6.42 1.77zM368.85 752.65c.46 10.23 6.37 19.33 12.72 27s15.24 12.45 25.38 11.61c8.27-.68 16.34-5.13 20.7-12.29s4.6-16.24 4.09-24.5c-.26-4.26-6.92-4.29-6.66 0 .83 13.39-2 28.43-18.13 30.14-8.45.89-15.48-3.31-20.67-9.67s-10.4-14-10.77-22.31c-.19-4.27-6.85-4.29-6.66 0z"/></g><g fill="#fff"><path d="M433.16 724.54a11.79 11.79 0 0113-3.66c4.08 1.34 5.82-5.08 1.77-6.42a18.3 18.3 0 00-19.46 5.38c-2.77 3.23 1.91 8 4.71 4.7zM397.84 769.52c1.5-3.4 4.94-5.93 8.81-5.3 4.19.69 6-5.72 1.77-6.41-6.64-1.09-13.54 2-16.32 8.35-1.71 3.89 4 7.28 5.74 3.36zM474 681.71a16.8 16.8 0 016.73-6.59c3.77-2 .41-7.79-3.36-5.74a23.27 23.27 0 00-9.12 9c-2.11 3.73 3.64 7.09 5.75 3.36z"/></g><path d="M522.43 680.32a97.21 97.21 0 01-14.66-19.89c-3.92-6.83-8.23-13.9-11.13-21.23a28.9 28.9 0 0119.22-38.93c4.13-1.14 2.38-7.56-1.76-6.41-17.73 4.89-29.22 22.35-25.77 40.65 1.77 9.45 7.53 18.22 12.13 26.51 4.83 8.69 10.3 16.88 17.26 24 3 3.07 7.7-1.64 4.71-4.71z" fill="#112870"/><path d="M67.94 432.5l553.61-14.87-24.92 74z" fill="#ff7348"/><g fill="#f9ce46"><path d="M602.68 658.53C578.39 658.36 68 432.77 68 432.77l604 69.93s-45 156-69.32 155.83z"/><path d="M806.84 605.11C793.94 658.94 67.77 433 67.77 433l556 18.11a94 94 0 0148 14.91c45.94 29.58 144.78 98.52 135.07 139.09zM621.55 417.64s-68.5-64.38-118.37-59.64c-2.18.2-435.24 74.5-435.24 74.5z"/></g><path d="M72.4 437.31l54.6-1.59 131.13-3.82 158.66-4.62 137.21-4 45.47-1.28c7.07-.2 14.25 0 21.3-.62h1c4.27-.12 4.29-6.78 0-6.65l-54.6 1.59L436 420.07l-158.66 4.62-137.21 4L94.66 430c-7.07.2-14.25.05-21.3.62h-1c-4.27.13-4.29 6.79 0 6.66z" fill="#112870"/><path d="M658.11 462.4c41.67 21.46 81.48 48.54 113.7 82.83 10.34 11 20.21 22.89 27.27 36.31 3.15 6 8.61 16.61 4.46 23.21-2.48 3.93-8.08 5.24-12.3 6-7 1.31-14.28 1.18-21.34.8a278.29 278.29 0 01-42.32-6c-25.58-5.39-51.18-10.68-76.68-16.45-76.18-17.24-151.84-36.77-227.27-57Q314.4 502.87 205.8 471.36C163.22 459 120.35 447.11 78.35 432.9c-1.75-.59-3.5-1.19-5.22-1.84-4-1.49-5.76 4.94-1.77 6.42 12.82 4.78 26.07 8.57 39.15 12.57q37.69 11.55 75.58 22.51 108.81 31.79 218.29 61.28c77.85 21 155.93 41.31 234.53 59.35 27.51 6.32 55.21 11.74 82.76 17.88a327.21 327.21 0 0040.08 6.55c13 1.24 29.11 2.74 41-3.67 21.31-11.42-1.22-42.73-10.24-54.58-25.61-33.61-60.25-60.62-95.91-82.81-11.44-7.12-23.2-13.74-35.18-19.91-3.81-2-7.18 3.78-3.36 5.75z" fill="#112870"/><g fill="#fff"><path d="M254.33 412.63C314.94 402.28 376 394.27 436.76 385c12.62-1.92 25.25-3.81 37.83-6 4.21-.72 2.43-7.14-1.77-6.42C412.21 383 351.18 391 290.39 400.26c-12.61 1.92-25.24 3.81-37.82 6-4.22.72-2.43 7.13 1.76 6.41zM179.71 449q96.19 4.6 192.29 11.36c4.27.3 4.25-6.36 0-6.66q-96.09-6.7-192.29-11.34c-4.28-.21-4.27 6.45 0 6.65zM391.38 460.08c4.28 0 4.29-6.66 0-6.66s-4.29 6.66 0 6.66z"/></g><path d="M596.48 720.82s-11.94-106.37-55.11-99.06-38.75 97.49-39 108.52c-11 5.07-66.65 48.91-58.09 103.52" fill="#fc92c3"/><path d="M425.73 833.27A203.77 203.77 0 01458.18 777a215.4 215.4 0 0122.4-23.51q5.22-4.71 10.73-9.1c4.39-3.5 9.43-6.43 13.63-10.12 3.69-3.24 3.08-7.33 2.8-11.83-.38-6.29-.61-12.59-.56-18.89.09-12.51 1.25-25.06 4.54-37.17 3-11.1 7.67-22.4 15.51-31 9-9.85 21.67-14.8 32.71-4.88 10.28 9.23 14.75 25.17 19.59 37.66q7.66 19.8 13.76 40.17c1.22 4.1 7.64 2.36 6.41-1.77q-6.08-20.35-13.75-40.17c-4.55-11.74-8.78-24.83-16.35-35-6.42-8.65-16.72-15.09-27.83-12.84S522 629.89 516.2 639c-13.93 21.74-16.38 49.33-15.55 74.5.1 3 .25 6 .44 9 .23 3.79.58 5.59-2.45 8.21-4.55 3.93-9.81 7.18-14.48 11a221 221 0 00-24.68 23.59 213.56 213.56 0 00-40.17 66.26c-1.53 4 4.9 5.74 6.42 1.77z" fill="#112870"/><path d="M533.63 637.5c-1.59 9-.27 18.71 7.37 24.63a15.68 15.68 0 0021.06-1.29c3-3.1-1.75-7.82-4.71-4.7-3.93 4.14-9.89 3.4-13.72-.54-4.18-4.3-4.57-10.74-3.59-16.33.74-4.19-5.67-6-6.41-1.77z" fill="#fff"/><path d="M739.69 245.91c-16.14 6.61-486.34 9-501.71 0s-12.29-24.65 0-35.48 487.88-5.41 501.71 0 16.13 28.86 0 35.48z" fill="#a89fff"/><path d="M683.9 215.31l2.56 23.91c.45 4.22 7.11 4.26 6.65 0l-2.56-23.91c-.45-4.21-7.11-4.26-6.65 0z" fill="#fff"/><path d="M713.13 219.56c-6.12 2-8.85 10.6-5 15.71s13 4.78 16.46-.6.15-13.81-6.1-15.31" fill="#ff7348"/><path d="M65.66 290l.09 50.42a3.39 3.39 0 003.33 3.33q31.22 1.92 62.51 1.8 15.89-.07 31.76-.69 7.44-.3 14.87-.7c3.35-.19 8.06.35 10.94-1.82 2.72-2.06 2.66-5.37 2.72-8.47.1-5.19.11-10.39.11-15.58q0-15.11-.46-30.19c-.09-2.86.17-6.41-2.26-8.47-2.86-2.44-8.07-1.27-11.44-1.2l-31 .67L75 280.61c-4.28.09-4.29 6.75 0 6.66l54.94-1.18 27-.58 14-.3c1.83 0 13.22-1.37 14-.3.42.58.06 3.35.08 4.14q.1 3.4.18 6.81.15 6.81.21 13.63.06 6.33 0 12.66c0 2.28 0 4.55-.05 6.82 0 1.93.63 6.08-.6 7.49-1.82 2.07-9.62 1.18-12.41 1.32q-6.93.33-13.88.57-13.89.47-27.8.52-30.78.12-61.51-1.81l3.32 3.33-.17-50.39c0-4.28-6.66-4.29-6.65 0z" fill="#a89fff"/><g fill="#ff7348"><path d="M70.49 389.23H190c4.28 0 4.29-6.65 0-6.65H70.49c-4.28 0-4.29 6.65 0 6.65zM74.94 521.68a701.64 701.64 0 0091.59-1.25c4.24-.34 4.28-7 0-6.66A699.89 699.89 0 0174.94 515c-4.28-.22-4.27 6.43 0 6.65zM80.85 569.64a589.18 589.18 0 0179.72-1.18c4.28.22 4.26-6.44 0-6.66a589.18 589.18 0 00-79.72 1.2c-4.24.35-4.28 7 0 6.66zM88.2 612.1h28c4.29 0 4.29-6.66 0-6.66h-28c-4.28 0-4.29 6.66 0 6.66z"/></g><g fill="#75ddf9"><circle cx="814.07" cy="385.67" r="117.59"/><path d="M248.6 307.37l.23 22.67a3.38 3.38 0 003.33 3.33l14.86.16c3.58 0 8 .81 11.41-.67 6.16-2.68 3.94-11.8 3.61-17s-.77-11.25-5.09-14.77a9.63 9.63 0 00-6.85-2c-3 .19-7.61 3.47-10.46 2.2-3.87-1.73-7.26 4-3.36 5.75s7 .88 10.92-.41c2.22-.73 4.55-1.64 6.25.47 1.34 1.67 1.6 4.48 1.79 6.52.22 2.43.3 4.88.45 7.31.05.95.51 3.07.22 4.06-.66 2.22-2.13 1.69-3.94 1.94-6.29.86-13.45-.14-19.81-.2l3.33 3.32-.24-22.67c0-4.28-6.7-4.29-6.65 0zM356.32 295.92c-8.17.58-14.39 6.47-16.52 14.27a19.87 19.87 0 008.12 21.68c18 12.68 38.65-1.67 46.4-18.84.68-1.51.58-3.76-1.19-4.56a16.78 16.78 0 00-18.19 2.27c-1.44 1.15-1.11 3.52 0 4.71 11 11.77 27.9 17.27 43.66 13.38a45.57 45.57 0 0020.4-11.3c3.63-3.46 12.17-11.93 8.88-17.28-3.08-5-10.33-5.8-15.26-3.39-6 2.93-7.93 9.9-6.48 16.06 3.66 15.65 24.62 19.24 38.14 18.68 16.14-.67 32.3-7.66 40.36-22.26a3.39 3.39 0 00-1.19-4.56 16.45 16.45 0 00-17.46.54 3.37 3.37 0 00-.68 5.22c23.7 27 70.78 26.49 93.87-1a3.36 3.36 0 00-3.24-5.56c-5.82 1.36-7.8 8.63-4.65 13.41 4.57 6.91 15 5.73 22.07 4.83 19.47-2.48 37.88-12.1 57.86-10 4.25.45 4.22-6.21 0-6.66-13.31-1.41-26.16 2.2-38.88 5.67-6.79 1.85-13.65 3.72-20.66 4.51a45.47 45.47 0 01-8.88.35c-1.83-.16-4-.39-5.28-1.82-.94-1-2-3.38.19-3.9l-3.24-5.56c-20.88 24.89-63 25.46-84.45 1l-.68 5.22a9.85 9.85 0 0110.75-.53l-1.2-4.55c-7.62 13.81-23.57 19.42-38.69 19-7.9-.22-18.07-1.75-24-7.48-3.19-3.1-5.61-8.83-2.7-12.89 2.12-3 7.21-3.45 9.14-.05v-3.36a38.5 38.5 0 01-63 9.55v4.71a9.73 9.73 0 0110.12-1.23l-1.19-4.55c-5.52 12.23-17.67 24.19-32.2 19.11-5.87-2-10.93-7-10.68-13.62.23-5.92 4.33-12.13 10.62-12.58 4.25-.31 4.28-7 0-6.66zM261.41 376.24a30.17 30.17 0 01-1.62-13l-3.33 3.33a80.59 80.59 0 0123.09 1.27l-2.45-3.21a36.82 36.82 0 004.33 17.5c2 3.8 7.74.44 5.75-3.36a29.26 29.26 0 01-3.42-14.14 3.38 3.38 0 00-2.44-3.21 86.81 86.81 0 00-24.86-1.5 3.43 3.43 0 00-3.33 3.32A34.89 34.89 0 00255 378c1.4 4 7.83 2.29 6.41-1.77zM251.55 548.58c0 4.84-.56 9.95-.08 14.77.27 2.74 1.49 5 4.13 6 3.85 1.52 8.86 1.32 12.93 1.82 3.55.42 7.89 1.73 11.24 0 5.66-3 5.78-14.28 3.67-19.44-2.35-5.77-8.81-8.64-14.4-5.73-3.8 2-.44 7.73 3.36 5.75 6.1-3.18 5.44 8.19 5 10.67s-.52 2.65-3 2.83c-1.87.14-4.08-.49-5.92-.71l-5.92-.71c-2.17-.27-3.5.11-4.52-1.67-.64-1.13 0-4.37.05-5.81l.07-7.75c0-4.29-6.63-4.29-6.66 0zM251.16 612.33l3.4 19.82c.33 1.87 2.48 2.63 4.1 2.32 8.86-1.67 17.89 3.65 24.76-4.72 6.21-7.57 3.92-17.57 1.28-26.07a3.26 3.26 0 00-2.32-2.32 23.47 23.47 0 01-8.73-2.87c-3.73-2.12-7.09 3.63-3.36 5.74a27.84 27.84 0 0010.32 3.54l-2.33-2.32c2 6.41 5.3 16.53-1.44 21.44-5.11 3.72-13.94 0-19.95 1.16l4.09 2.33-3.4-19.82c-.73-4.21-7.14-2.42-6.42 1.77zM314.68 610.53c-9.85 4.57-4.25 18.46 4.74 20 12.62 2.12 24.47-10.26 29.95-20.22 1.17-2.13-.28-5.11-2.87-5-9.18.34-6.51 12-.6 15.23 9.65 5.27 19.28-2 26.08-8.39l-5.23-.67c4.87 8.91 17.67 7.78 26.27 7.84a242.1 242.1 0 0039.69-3.1c4.22-.66 2.43-7.08-1.77-6.42a231.9 231.9 0 01-32.22 2.84c-5.07.08-10.14 0-15.2-.24-3.94-.2-8.9-.41-11-4.28a3.36 3.36 0 00-5.22-.67c-3.21 3-6.6 6.37-10.92 7.65a10.27 10.27 0 01-5.47.26 6.78 6.78 0 01-3.05-1.53 3.5 3.5 0 00-1.34-1.86l-2.88-5a37.43 37.43 0 01-13.8 14.61c-3.07 1.78-8.51 4.09-11.78 1.43-2.06-1.68-2.76-5.39 0-6.67 3.89-1.8.51-7.54-3.36-5.75zM315.32 568.91a87 87 0 0020.87 1.54c4.26-.21 4.29-6.86 0-6.65a80 80 0 01-19.1-1.31c-4.18-.81-6 5.6-1.77 6.42z"/></g><g fill="#e3e5e5"><path d="M835.72 561.47l74.22 1.29c4.28.08 4.28-6.58 0-6.65l-74.22-1.3c-4.28-.08-4.28 6.58 0 6.66zM857.09 607.5l26.91 1.13 13.46.56c3.69.16 8.27-.46 11.34 1.89 3.4 2.61 6.72-3.17 3.36-5.74-2.65-2-5.69-2.36-8.94-2.56-5.11-.32-10.25-.43-15.37-.65l-30.76-1.29c-4.28-.18-4.27 6.48 0 6.66zM880 636.1h12.8c4.29 0 4.29-6.65 0-6.65H880c-4.28 0-4.29 6.65 0 6.65z"/></g><path d="M739.74 343.88s51.77 61.39 59.91 60.65S893.2 291 903.56 291s19.6 14.43 19.6 25.52-107.24 128.69-119.82 128.69-82.83-74-80.61-85.06 10.35-22.92 17.01-16.27z" fill="#4081f4"/><path d="M903.34 294.34c6.46 3.5 14.67 9.66 16.14 17.38 1.6 8.4-7.76 17.92-12.67 23.72-7.72 9.12-16 17.74-24.4 26.25-18.2 18.51-36.87 36.56-55.33 54.81-8.79 8.69-17.58 17.39-26.09 26.35-3 3.11 1.75 7.82 4.71 4.71 18.14-19.11 37.25-37.31 56-55.81 19.54-19.27 40.77-38.42 57-60.68 5.19-7.12 9.81-15.29 6.21-24.18-3.25-8-10.78-14.28-18.2-18.29-3.77-2-7.13 3.7-3.36 5.74z" fill="#112870"/></svg>